<svg xmlns="http://www.w3.org/2000/svg" x="0px" y="0px"
width="100" height="100"
viewBox="0 0 53 53">
<g id="_x38_3"><path fill="#474646" d="M48.0059547,39.9087067V11.4677677c0-1.8055773-1.463707-3.2692871-3.2692833-3.2692871H8.2682886 c-1.8055768,0-3.2692862,1.4637098-3.2692862,3.2692871v28.4409389H48.0059547z"></path><path fill="#fff" d="M6.9658599,13.0440979c-0.2256145,0-0.4086604-0.1830463-0.4086604-0.4086609v-0.0017452 c0-1.5889082,1.288064-2.8769722,2.8769722-2.8769722h0.3827362c0.2256145,0,0.4086609,0.1830454,0.4086609,0.4086609 c0,0.2256145-0.1830463,0.4086609-0.4086609,0.4086609H9.4341717c-1.1375141,0-2.0596509,0.9221363-2.0596509,2.0596504 v0.0017452C7.3745208,12.8610516,7.1914749,13.0440979,6.9658599,13.0440979z" opacity=".3"></path><path fill="#2d2c2c" d="M48.0028267,11.4700594v28.4382362H5.0008535V38.546093h40.5500069 c0.60186,0,1.0897636-0.4879036,1.0897636-1.0897636V10.1078568c0-0.5557899-0.1306343-1.068079-0.3812599-1.5256939 C47.2945862,9.1270437,48.0028267,10.2168064,48.0028267,11.4700594z"></path><path fill="#fff" d="M44.3195572,12.8213539v22.466362c0,0.6101952-0.4794312,1.0897598-1.0897598,1.0897598H9.7741499 c-0.6103306,0-1.0897617-0.4795647-1.0897617-1.0897598v-22.466362c0-0.610198,0.4794312-1.0897627,1.0897617-1.0897627 h33.4556465C43.840126,11.7315912,44.3195572,12.2111559,44.3195572,12.8213539z"></path><path fill="#e4e3ff" d="M44.2275276,12.3610535c-0.1398926-0.0499878-0.2900391-0.0900269-0.4599609-0.0900269H10.3176155 c-0.6101074,0-1.0900879,0.4800415-1.0900879,1.0900269v22.4700317c0,0.1699829,0.0400391,0.3199463,0.0900879,0.4599609 c-0.3701172-0.1799927-0.630127-0.5599976-0.630127-1V12.8210754c0-0.6100464,0.4799805-1.0900269,1.0900879-1.0900269 h33.4499512C43.667469,11.7310486,44.047596,11.9910583,44.2275276,12.3610535z"></path><g opacity=".3"><path fill="#fff" d="M33.9419327,10.3428993h-1.1802216c-0.2405128,0-0.4363289-0.195817-0.4363289-0.4363308 s0.195816-0.4363308,0.4363289-0.4363308h1.1802216c0.2405128,0,0.4363289,0.195817,0.4363289,0.4363308 S34.1824455,10.3428993,33.9419327,10.3428993z"></path><path fill="#fff" d="M31.0355453,10.3428993h-8.3658409c-0.2405128,0-0.4363308-0.195817-0.4363308-0.4363308 s0.1958179-0.4363308,0.4363308-0.4363308h8.3658409c0.2405148,0,0.4363308,0.195817,0.4363308,0.4363308 S31.2760601,10.3428993,31.0355453,10.3428993z"></path></g><path fill="#e4e3ff" d="M50.4986115,41.0284843v2.6534386c0,0.6270409-0.5037651,1.1195946-1.1195984,1.1195946H3.6209857 c-0.6155593,0-1.1195962-0.4925537-1.1195962-1.1195946v-2.6534386c0-0.6157646,0.5040369-1.1195946,1.1195962-1.1195946 h45.7580261C49.9948463,39.9088898,50.4986115,40.4127197,50.4986115,41.0284843z"></path><path fill="#d0d0f7" d="M50.4986115,41.0284843v2.6534386c0,0.6270409-0.5037651,1.1195946-1.1195984,1.1195946H3.6209857 c-0.6155593,0-1.1195962-0.4925537-1.1195962-1.1195946h45.7580299c0.6158333,0,1.1195946-0.4925575,1.1195946-1.1195946 v-2.6534386C49.9948463,39.9088898,50.4986115,40.4127197,50.4986115,41.0284843z"></path><path fill="#d0d0f7" d="M32.3992195,39.9068832c0,1.3499565-1.1000347,2.4498711-2.44981,2.4498711h-6.8897381 c-1.3597851,0-2.44981-1.0999146-2.44981-2.4498711H32.3992195z"></path><g opacity=".5"><path fill="#fff" d="M18.202631,42.2467728h-0.8954544c-0.2763519,0-0.4999714-0.2236176-0.4999714-0.4999695 s0.2236195-0.4999733,0.4999714-0.4999733h0.8954544c0.2763519,0,0.4999714,0.2236214,0.4999714,0.4999733 S18.4789829,42.2467728,18.202631,42.2467728z"></path><path fill="#fff" d="M14.932313,42.2467728H4.9123855c-0.276351,0-0.4999709-0.2236176-0.4999709-0.4999695 S4.6360345,41.24683,4.9123855,41.24683h10.019928c0.2763519,0,0.4999714,0.2236214,0.4999714,0.4999733 S15.2086649,42.2467728,14.932313,42.2467728z"></path></g><path fill="#7979f7" d="M44.3195686,15.3160706v-2.494751c0-0.6101685-0.4794922-1.0897217-1.0898438-1.0897217H9.7741585 c-0.6103516,0-1.0898438,0.4795532-1.0898438,1.0897217v2.494751H44.3195686z"></path><path fill="#5e5eef" d="M44.2275276,12.3610535c-0.1398926-0.0499878-0.2900391-0.0900269-0.4599609-0.0900269H10.3176155 c-0.6101074,0-1.0900879,0.4800415-1.0900879,1.0900269v1.960022H8.6874886v-2.5 c0-0.6100464,0.4799805-1.0900269,1.0900879-1.0900269h33.4499512 C43.667469,11.7310486,44.047596,11.9910583,44.2275276,12.3610535z"></path><path fill="#f9b938" d="M12.2583685,13.5303125c0,0.4036961-0.3389177,0.7422953-0.7554102,0.7422953 c-0.4168119,0-0.7554111-0.3385992-0.7554111-0.7422953c0-0.4166527,0.3385992-0.7552519,0.7554111-0.7552519 C11.9194508,12.7750607,12.2583685,13.1136599,12.2583685,13.5303125z"></path><path fill="#00d67f" d="M14.9646206,13.5303125c0,0.4036961-0.3389177,0.7422953-0.7554111,0.7422953 c-0.416811,0-0.7554102-0.3385992-0.7554102-0.7422953c0-0.4166527,0.3385992-0.7552519,0.7554102-0.7552519 C14.6257029,12.7750607,14.9646206,13.1136599,14.9646206,13.5303125z"></path><path fill="#fc6559" d="M17.6708717,13.5303125c0,0.4036961-0.3389168,0.7422953-0.7554092,0.7422953 c-0.416811,0-0.7554111-0.3385992-0.7554111-0.7422953c0-0.4166527,0.3386002-0.7552519,0.7554111-0.7552519 C17.331955,12.7750607,17.6708717,13.1136599,17.6708717,13.5303125z"></path><g><path fill="#5e5eef" d="M42.047596,13.5210266c0,0.3100586-0.25,0.5600586-0.5500488,0.5600586H31.0976448 c-0.3000488,0-0.5500488-0.25-0.5500488-0.5600586c0-0.2999878,0.25-0.5499878,0.5500488-0.5499878h10.3999023 C41.797596,12.9710388,42.047596,13.2210388,42.047596,13.5210266z"></path></g><g><path fill="#fc6559" d="M36.1863976,34.1681023c-0.5596771,0.6279144-1.3456802,0.9604683-2.1546707,0.9604683H18.9745502 c-2.2396736,0-3.6336079-2.4351501-2.498909-4.3688469l1.7849388-3.03862l5.7032776-9.7066441l0.0382328-0.0637321 c0.4941864-0.8484917,1.3783321-1.383976,2.3799267-1.4237118c1.0072098-0.0424881,2.0356636,0.4334927,2.6178894,1.4237118 l7.5307293,12.8089962C37.2148514,31.9284286,36.9768639,33.2798996,36.1863976,34.1681023z"></path><path fill="#f05543" d="M36.1874886,34.171051c-0.5623627,0.6269188-1.3542213,0.960022-2.1599121,0.960022h-1.0400391 c0.2900391,0,0.5600586-0.0400391,0.8200684-0.1199951c0.5300293-0.1500244,0.9899902-0.4500122,1.3398438-0.8400269 c0.7900391-0.8900146,1.0300293-2.2399902,0.3400879-3.4099731l-7.5300293-12.8099976 c-0.4599609-0.7800293-1.1999512-1.25-2-1.3800049c0.1401367-0.0200195,0.2800293-0.0300293,0.4199219-0.0400391 c1.0102539-0.0499878,2.0400391,0.4299927,2.6201172,1.4200439l7.5300293,12.8099976 C37.2175179,31.9310608,36.9775276,33.2810364,36.1874886,34.171051z"></path><path fill="#e4e3ff" d="M34.4524574,32.4681664c-0.093483,0.1614952-0.2337379,0.2422447-0.4207306,0.2422447H18.9745502 c-0.1869946,0-0.3272457-0.0807495-0.4207306-0.2422447c-0.0892563-0.1614952-0.0892563-0.3229904,0.0042286-0.4844875 l1.0624599-1.8104095l5.7075558-9.7066441l0.7394695-1.2622166l0.0169888-0.029726 c0.0935097-0.1572418,0.233736-0.2379894,0.4164772-0.2379894c0.1827393,0,0.3229904,0.0807476,0.4165001,0.2379894 l7.5307045,12.8089962C34.5417137,32.1451759,34.5417137,32.3066711,34.4524574,32.4681664z"></path><path fill="#d0d0f7" d="M27.0275764,19.3610535c-0.0400391-0.0200195-0.0800781-0.0200195-0.119873-0.0200195 c-0.1801758,0-0.3200684,0.0800171-0.420166,0.2400513l-0.0100098,0.0299683l-0.7399902,1.2600098l-5.7099609,9.710022 l-1.0600586,1.8099976c-0.0598145,0.0999756-0.0900879,0.2099609-0.0700684,0.3099976 c-0.1499023-0.0200195-0.2597656-0.0900269-0.3398438-0.2300415c-0.0900879-0.1599731-0.0900879-0.3299561,0-0.4899902 l1.0600586-1.8099976l5.7099609-9.7000122l0.7399902-1.2699585l0.0200195-0.0300293 c0.0898438-0.1500244,0.2299805-0.2299805,0.4099121-0.2299805c0.1899414,0,0.3300781,0.0799561,0.4199219,0.2299805 L27.0275764,19.3610535z"></path><path fill="#474646" d="M25.974947,31.158556c-0.1469078-0.1463985-0.2201061-0.3250427-0.2201061-0.5344009 c0-0.2011662,0.0731983-0.3752041,0.2201061-0.5221138c0.1469097-0.1469078,0.3209476-0.2201061,0.5221138-0.2201061 c0.2098694,0,0.3880024,0.0731983,0.5349121,0.2201061c0.1463966,0.1469097,0.2201061,0.3209476,0.2201061,0.5221138 c0,0.2093582-0.0737095,0.3880024-0.2201061,0.5344009c-0.1469097,0.1469078-0.3250427,0.2201061-0.5349121,0.2201061 C26.2958946,31.3786621,26.1218567,31.3054638,25.974947,31.158556z M26.195055,28.7998276 c-0.0752468-0.0670547-0.1172199-0.155098-0.1254101-0.2641277l-0.2267609-4.1513195v-1.2453957 c0-0.1842747,0.0629597-0.3398857,0.1888809-0.4652958c0.1259232-0.1259212,0.2810211-0.1888809,0.4652958-0.1888809 c0.1842766,0,0.3378391,0.0629597,0.4591541,0.1888809c0.1218262,0.1254101,0.1827393,0.2810211,0.1827393,0.4652958v1.2453957 l-0.2267609,4.1513195c-0.0081902,0.1090298-0.0481167,0.197073-0.1192665,0.2641277 c-0.0716629,0.0675678-0.1699429,0.1008396-0.295866,0.1008396 C26.3711395,28.9006672,26.2708111,28.8673954,26.195055,28.7998276z"></path></g><g opacity=".3"><path fill="#fff" d="M23.0370979,22.3209534c-0.0625,0-0.1259766-0.0166016-0.1826172-0.0507813 c-0.1650391-0.1015625-0.2167969-0.3164063-0.1162109-0.4814453l0.1523438-0.2490234 c0.1015625-0.1650391,0.3173828-0.2158203,0.4814453-0.1162109c0.1650391,0.1015625,0.2167969,0.3164063,0.1162109,0.4814453 l-0.1523438,0.2490234C23.2695198,22.2623596,23.1542854,22.3209534,23.0370979,22.3209534z"></path><path fill="#fff" d="M19.5019417,28.0875549c-0.0625,0-0.1259766-0.0166016-0.1826172-0.0507813 c-0.1650391-0.1015625-0.2167969-0.3173828-0.1162109-0.4814453l3.0244141-4.9335938 c0.1015625-0.1669922,0.3173828-0.2148438,0.4814453-0.1162109c0.1650391,0.1015625,0.2167969,0.3173828,0.1162109,0.4814453 l-3.0244141,4.9335938C19.7343636,28.0289612,19.6191292,28.0875549,19.5019417,28.0875549z"></path></g><g opacity=".3"><path fill="#fff" d="M30.2857513,34.3028488h-5.1720295c-0.2258778,0-0.4086552-0.1827774-0.4086552-0.4086533 s0.1827774-0.4086533,0.4086552-0.4086533h5.1720295c0.2258778,0,0.4086552,0.1827774,0.4086552,0.4086533 S30.5116291,34.3028488,30.2857513,34.3028488z"></path></g></g>
</svg>